<svg width="141" height="45" viewBox="0 0 141 45" fill="none" xmlns="http://www.w3.org/2000/svg">
<path d="M74.1162 11.428C74.1162 13.0025 72.8478 14.2709 71.2729 14.2709C69.6985 14.2709 68.4302 13.0025 68.4302 11.428C68.4302 9.85351 69.6548 8.58518 71.2729 8.58518C72.8913 8.62893 74.1162 9.89725 74.1162 11.428ZM62.3946 17.1574C62.3946 17.4199 62.3946 17.8572 62.3946 17.8572C62.3946 17.8572 61.0388 16.1078 58.1522 16.1078C53.3849 16.1078 49.6673 19.7379 49.6673 24.7676C49.6673 29.7535 53.3412 33.4274 58.1522 33.4274C61.0825 33.4274 62.3946 31.6342 62.3946 31.6342V32.3778C62.3946 32.7276 62.657 32.99 63.0069 32.99H66.5495V16.5452C66.5495 16.5452 63.3131 16.5452 63.0069 16.5452C62.657 16.5452 62.3946 16.8513 62.3946 17.1574ZM62.3946 27.6979C61.7386 28.6601 60.4265 29.4911 58.852 29.4911C56.0528 29.4911 53.9098 27.7417 53.9098 24.7676C53.9098 21.7935 56.0528 20.0441 58.852 20.0441C60.3827 20.0441 61.7823 20.9188 62.3946 21.8373V27.6979ZM69.1738 16.5452H73.3722V32.99H69.1738V16.5452ZM131.891 16.1078C129.005 16.1078 127.649 17.8572 127.649 17.8572V8.62893H123.451V32.99C123.451 32.99 126.687 32.99 126.993 32.99C127.343 32.99 127.605 32.6839 127.605 32.3778V31.6342C127.605 31.6342 128.961 33.4274 131.848 33.4274C136.615 33.4274 140.333 29.7535 140.333 24.7676C140.333 19.7817 136.615 16.1078 131.891 16.1078ZM131.192 29.4474C129.574 29.4474 128.305 28.6164 127.649 27.6542V21.7935C128.305 20.9188 129.705 20.0004 131.192 20.0004C133.991 20.0004 136.134 21.7498 136.134 24.7239C136.134 27.6979 133.991 29.4474 131.192 29.4474ZM121.264 23.2368V33.0338H117.065V23.7179C117.065 21.0063 116.19 19.9129 113.829 19.9129C112.56 19.9129 111.248 20.5689 110.417 21.5311V32.99H106.218V16.5452H109.543C109.893 16.5452 110.154 16.8513 110.154 17.1574V17.8572C111.379 16.5889 112.998 16.1078 114.615 16.1078C116.453 16.1078 117.983 16.6327 119.208 17.6823C120.695 18.907 121.264 20.4815 121.264 23.2368ZM96.0276 16.1078C93.1415 16.1078 91.7857 17.8572 91.7857 17.8572V8.62893H87.5871V32.99C87.5871 32.99 90.8232 32.99 91.1291 32.99C91.479 32.99 91.7415 32.6839 91.7415 32.3778V31.6342C91.7415 31.6342 93.0975 33.4274 95.9843 33.4274C100.751 33.4274 104.469 29.7535 104.469 24.7676C104.512 19.7817 100.795 16.1078 96.0276 16.1078ZM95.3283 29.4474C93.7099 29.4474 92.4416 28.6164 91.7857 27.6542V21.7935C92.4416 20.9188 93.8408 20.0004 95.3283 20.0004C98.1269 20.0004 100.27 21.7498 100.27 24.7239C100.27 27.6979 98.1269 29.4474 95.3283 29.4474ZM83.9568 16.1078C85.2253 16.1078 85.8811 16.3265 85.8811 16.3265V20.219C85.8811 20.219 82.3818 19.0381 80.195 21.5311V33.0338H75.9965V16.5452C75.9965 16.5452 79.2332 16.5452 79.5391 16.5452C79.8892 16.5452 80.1516 16.8513 80.1516 17.1574V17.8572C80.9391 16.9388 82.6443 16.1078 83.9568 16.1078ZM40.3515 31.503C40.1328 30.9782 39.9141 30.4096 39.6954 29.9285C39.3456 29.1412 38.9956 28.3977 38.6895 27.6979L38.6458 27.6542C35.6279 21.0938 32.3915 14.4459 28.98 7.88539L28.8489 7.62296C28.4989 6.96691 28.1491 6.26713 27.7991 5.56735C27.3618 4.78009 26.9244 3.9491 26.2246 3.16185C24.8251 1.41239 22.8132 0.450195 20.6701 0.450195C18.4833 0.450195 16.5152 1.41239 15.0719 3.07438C14.4158 3.86163 13.9347 4.69262 13.4974 5.47988C13.1475 6.17965 12.7976 6.87944 12.4477 7.53546L12.3165 7.79789C8.94884 14.3584 5.66858 21.0063 2.65077 27.5667L2.60703 27.6542C2.30088 28.354 1.95099 29.0975 1.6011 29.8848C1.38242 30.3659 1.16374 30.8907 0.945055 31.4593C0.376483 33.0775 0.201537 34.6083 0.420219 36.1828C0.901319 39.463 3.08814 42.2184 6.10594 43.443C7.24308 43.9241 8.42398 44.1428 9.64856 44.1428C9.99849 44.1428 10.4358 44.099 10.7857 44.0553C12.229 43.8804 13.716 43.3993 15.1594 42.5683C16.9526 41.5624 18.6583 40.1191 20.5827 38.0197C22.5071 40.1191 24.2565 41.5624 26.0059 42.5683C27.4493 43.3993 28.9363 43.8804 30.3796 44.0553C30.7295 44.099 31.1668 44.1428 31.5168 44.1428C32.7413 44.1428 33.966 43.9241 35.0594 43.443C38.1209 42.2184 40.264 39.4193 40.7451 36.1828C41.095 34.652 40.9201 33.1212 40.3515 31.503ZM20.6264 33.7773C18.2646 30.8032 16.7339 28.0041 16.209 25.6424C15.9903 24.6364 15.9466 23.7617 16.0778 22.9744C16.1653 22.2747 16.4277 21.6623 16.7776 21.1375C17.6086 19.9566 19.0082 19.2131 20.6264 19.2131C22.2446 19.2131 23.688 19.9129 24.4752 21.1375C24.8251 21.6623 25.0875 22.2747 25.175 22.9744C25.3062 23.7617 25.2625 24.6801 25.0438 25.6424C24.5189 27.9603 22.9882 30.7595 20.6264 33.7773ZM38.0772 35.8329C37.7711 38.1072 36.2403 40.0753 34.0972 40.95C33.0475 41.3874 31.9104 41.5186 30.7732 41.3874C29.6798 41.2562 28.5864 40.9063 27.4493 40.2502C25.8748 39.3755 24.3003 38.0197 22.4633 36.0078C25.3499 32.4652 27.0994 29.2287 27.7555 26.3421C28.0616 24.9863 28.1053 23.7617 27.9741 22.6245C27.7991 21.5311 27.4055 20.5251 26.7932 19.6504C25.4374 17.6823 23.1631 16.5452 20.6264 16.5452C18.0897 16.5452 15.8154 17.7261 14.4596 19.6504C13.8473 20.5251 13.4536 21.5311 13.2787 22.6245C13.1038 23.7617 13.1475 25.03 13.4974 26.3421C14.1534 29.2287 15.9466 32.5089 18.7895 36.0516C16.9963 38.0634 15.3781 39.4193 13.8035 40.294C12.6664 40.95 11.573 41.3 10.4796 41.4311C9.2987 41.5624 8.16155 41.3874 7.15561 40.9938C5.01253 40.1191 3.48176 38.1509 3.17561 35.8766C3.0444 34.7832 3.13187 33.6898 3.56923 32.4652C3.70045 32.0278 3.91913 31.5905 4.13781 31.0656C4.44396 30.3659 4.79385 29.6223 5.14374 28.8788L5.18748 28.7914C8.2053 22.2747 11.4417 15.6267 14.8094 9.15372L14.9407 8.89128C15.2906 8.23524 15.6405 7.53546 15.9903 6.87944C16.3403 6.17965 16.7339 5.52361 17.215 4.95504C18.1335 3.90537 19.358 3.33679 20.7139 3.33679C22.0697 3.33679 23.2943 3.90537 24.2128 4.95504C24.6939 5.52361 25.0875 6.17965 25.4374 6.87944C25.7873 7.53546 26.1372 8.23524 26.4871 8.89128L26.6183 9.15372C29.9423 15.6704 33.1787 22.3183 36.1965 28.8351V28.8788C36.5464 29.5786 36.8526 30.3659 37.2024 31.0656C37.4211 31.5905 37.6398 32.0278 37.7711 32.4652C38.1209 33.6023 38.2522 34.6957 38.0772 35.8329Z" fill="white"/>
</svg>
