<svg width="68" height="67" viewBox="0 0 68 67" fill="none" xmlns="http://www.w3.org/2000/svg">
<rect width="68" height="67" rx="17.2354" fill="white" fill-opacity="0.09"/>
<path fill-rule="evenodd" clip-rule="evenodd" d="M34.707 14.5051C34.2401 14.4091 33.7586 14.4091 33.2918 14.5051C32.7521 14.6161 32.2697 14.8863 31.8862 15.1011L31.7817 15.1595L18.785 22.3799C18.749 22.3998 18.712 22.4202 18.6741 22.4411C18.2681 22.6647 17.7577 22.9459 17.3658 23.3712C17.0269 23.7389 16.7704 24.1748 16.6135 24.6496C16.4321 25.1988 16.4342 25.7815 16.4359 26.245C16.436 26.2883 16.4362 26.3306 16.4362 26.3717V40.6279C16.4362 40.669 16.436 40.7112 16.4359 40.7546C16.4342 41.218 16.4321 41.8007 16.6135 42.3499C16.7704 42.8247 17.0269 43.2606 17.3658 43.6283C17.7577 44.0537 18.2681 44.3348 18.6741 44.5584C18.712 44.5793 18.749 44.5997 18.785 44.6196L31.7817 51.8401L31.8863 51.8985C32.2697 52.1133 32.7521 52.3834 33.2918 52.4944C33.7586 52.5904 34.2401 52.5904 34.707 52.4944C35.2467 52.3834 35.729 52.1132 36.1125 51.8985L36.217 51.8401L49.2138 44.6196C49.2297 44.6108 49.2458 44.6019 49.2621 44.5929C49.2826 44.5816 49.3035 44.5701 49.3247 44.5584C49.7306 44.3348 50.241 44.0537 50.633 43.6283C50.9719 43.2606 51.2283 42.8247 51.3852 42.3499C51.5667 41.8007 51.5646 41.218 51.5629 40.7545C51.5627 40.7112 51.5626 40.669 51.5626 40.6279V26.3717C51.5626 26.3306 51.5627 26.2883 51.5629 26.245C51.5646 25.7815 51.5667 25.1988 51.3852 24.6496C51.2283 24.1748 50.9719 23.7389 50.633 23.3712C50.241 22.9458 49.7306 22.6647 49.3247 22.4411L49.3232 22.4403C49.2858 22.4197 49.2493 22.3996 49.2138 22.3799L36.217 15.1595L36.1125 15.1011C35.729 14.8863 35.2467 14.6161 34.707 14.5051ZM33.4876 18.2301C33.7538 18.0822 33.8896 18.0075 33.991 17.9586L33.9994 17.9546L34.0078 17.9586C34.1091 18.0075 34.245 18.0822 34.5111 18.2301L46.1897 24.7181L33.9993 31.4906L21.809 24.7182L33.4876 18.2301ZM19.9488 27.703L32.243 34.5331L32.243 48.078L20.4909 41.5491C20.2099 41.393 20.0665 41.3125 19.9659 41.2484L19.9574 41.2429L19.9567 41.2328C19.9496 41.1137 19.9488 40.9492 19.9488 40.6279V27.703Z" fill="url(#paint0_linear_801_16196)"/>
<defs>
<linearGradient id="paint0_linear_801_16196" x1="36.9424" y1="68.4383" x2="-1.06279" y2="33.4287" gradientUnits="userSpaceOnUse">
<stop stop-color="#FB432C"/>
<stop offset="1" stop-color="#FF591E"/>
</linearGradient>
</defs>
</svg>
