<svg width="124" height="23" viewBox="0 0 124 23" fill="none" xmlns="http://www.w3.org/2000/svg">
<path d="M17.4376 18.244H21.304L21.6779 15.932H22.3811C22.9434 17.6315 24.4657 18.4798 26.0367 18.4798C29.2919 18.4798 31.2843 16.3576 31.2843 11.8299C31.2843 7.84368 29.6435 5.18012 26.1288 5.18012C24.4433 5.18012 22.9434 6.19306 22.3811 7.70135H21.6779L21.9123 4.16432V0.556152H17.4376V18.244ZM21.9123 12.2304V11.4518C21.9123 9.79982 22.8262 8.78689 24.4196 8.78689C25.8023 8.78689 26.7385 9.40078 26.7385 10.9802V12.702C26.7385 13.9996 26.1065 14.8717 24.4419 14.8717C22.7802 14.8717 21.9123 13.8573 21.9123 12.2304ZM32.4549 11.8523C32.4549 15.8386 35.0558 18.4798 39.0141 18.4798C42.2958 18.4798 44.7069 16.7344 45.0364 14.0471H40.7721C40.655 14.7768 39.9057 15.2009 38.8746 15.2009C37.8198 15.2009 36.9519 14.5423 36.9519 13.5503V12.8904H44.8955C45.0364 12.3964 45.0818 11.7114 45.0818 11.0514C45.0818 7.23115 42.3419 5.17869 38.8746 5.17869C35.2665 5.17869 32.4549 7.5841 32.4549 11.8523ZM36.9519 10.2017V9.9435C36.9519 9.09383 37.7486 8.47986 38.8271 8.47986C39.9057 8.47986 40.609 9.09383 40.609 9.9435V10.2017H36.9519ZM55.5144 5.3433C54.0856 5.3433 52.9839 6.16933 52.632 8.22036H51.9292L51.3903 5.41447H45.5093V9.02267H47.4555V18.244H51.93V13.009C51.93 10.3203 53.5936 9.56539 55.4897 9.56539C55.7493 9.56539 56.0072 9.58912 56.2874 9.61284V5.41447C56.0334 5.36289 55.7739 5.33917 55.5144 5.3433ZM57.4766 5.41447V22.1829H61.951V19.4942L61.7162 15.9558H62.4199C62.9819 17.4654 64.4824 18.4798 66.1692 18.4798C69.682 18.4798 71.3234 15.8149 71.3234 11.8299C71.3234 7.30231 69.3309 5.18012 66.0736 5.18012C64.5055 5.18012 62.9819 6.02844 62.4199 7.72508H61.7162L61.3413 5.41447H57.4766ZM61.951 11.4281C61.951 9.80126 62.8187 8.78824 64.4824 8.78824C66.1453 8.78824 66.7773 9.66028 66.7773 10.9565V12.6782C66.7773 14.2591 65.8412 14.8717 64.4585 14.8717C62.8649 14.8717 61.951 13.8573 61.951 12.2067V11.4281ZM76.8804 14.7544V0.556152H72.4283V14.8256C72.4283 16.8767 73.2498 18.2454 75.8257 18.2454H79.7851V14.7558H76.8804V14.7544ZM80.609 14.6344C80.609 16.9939 82.318 18.4798 84.9425 18.4798C87.1204 18.4798 88.644 17.4654 89.1367 15.9558H89.7672V18.244H94.4549V14.9414H92.8366V9.82633C92.8366 7.04416 91.2446 5.18012 87.1674 5.18012C83.4189 5.18012 81.241 6.80695 81.3803 9.96723H85.4806C85.4098 8.90549 86.0434 8.55246 86.9572 8.55246C87.8233 8.55246 88.3845 8.90549 88.3845 9.80261V10.6984L84.8255 10.9341C82.318 11.1002 80.6074 12.2778 80.6074 14.6372L80.609 14.6344ZM85.1057 14.0233C85.1057 13.528 85.4583 13.0564 86.2551 13.009L88.3861 12.8666V14.3526C88.0342 14.8954 87.3314 15.2483 86.4645 15.2483C85.5268 15.2483 85.1073 14.8479 85.1073 14.3051L85.1057 14.0233ZM95.8113 18.244H100.287V11.3806C100.287 9.87242 101.036 8.81061 102.535 8.81061C103.801 8.81061 104.504 9.54167 104.504 11.1226V18.244H109.001V9.54167C109.001 6.9242 107.573 5.17869 105.019 5.17869C103.051 5.17869 101.645 6.09817 100.989 7.70135H100.287L99.7477 5.41447H95.8113V18.244ZM110.438 11.8523C110.438 15.8386 113.04 18.4798 117 18.4798C120.279 18.4798 122.693 16.7344 123.021 14.0471H118.757C118.64 14.7768 117.891 15.2009 116.859 15.2009C115.804 15.2009 114.938 14.5423 114.938 13.5503V12.8904H122.881C123.021 12.3964 123.068 11.7114 123.068 11.0514C123.068 7.23115 120.326 5.17869 116.859 5.17869C113.251 5.17869 110.438 7.5841 110.438 11.8523ZM114.938 10.2017V9.9435C114.938 9.09383 115.735 8.47986 116.812 8.47986C117.891 8.47986 118.593 9.09383 118.593 9.9435V10.2017H114.938ZM7.10289 5.4159H15.9335V18.244H11.438V9.02124H7.10289V18.2426H2.60593V9.02124H0.28418V5.4159H2.60593V4.31079C2.60593 4.0122 2.61007 3.79321 2.61707 3.65503C2.62543 3.50991 2.64915 3.32993 2.68681 3.11365C2.73146 2.89881 2.80128 2.6686 2.89194 2.42303C3.34265 1.17705 4.4909 0.557545 6.33544 0.557545H9.98408V4.04571H7.10289V5.4159ZM11.4603 4.04571V0.556152H15.9335V4.04571H11.4603Z" fill="white"/>
</svg>
