<svg width="121" height="32" viewBox="0 0 121 32" fill="none" xmlns="http://www.w3.org/2000/svg">
<path d="M120.333 0.899902H0.333008V31.8676H120.333V0.899902Z" fill="black"/>
<path d="M0.333008 18.1753C0.333008 9.37555 7.26367 3.10143 17.1202 3.10143C20.0456 3.10143 23.2386 3.6464 25.0297 4.45879V9.95419H24.8292L17.9764 5.04849C17.6228 4.92585 16.8851 4.84654 16.1857 4.84654C11.0015 4.84654 7.34113 9.67615 7.34113 16.3399C7.34113 23.7823 11.9024 29.5778 17.6984 29.5778C18.091 29.5713 18.4822 29.5304 18.8677 29.4557L18.7561 29.4095V17.0518L16.9985 14.9046V14.7045H27.2433V14.9046L25.4857 17.0518V31.4249H25.2856L20.8465 30.0565C19.1337 30.9131 16.4858 31.536 14.1053 31.536C5.93997 31.536 0.333008 26.1181 0.333008 18.1753ZM31.9825 14.4039L29.9133 12.3351V12.1774L37.2778 10.2322H37.667L37.9436 14.4039H38.1769C39.857 11.4448 41.3365 10.2322 43.2052 10.2322C43.984 10.2322 44.6516 10.4659 44.9965 10.7776V17.0849H44.7964L40.8603 14.4366C40.7433 14.412 40.6239 14.4007 40.5043 14.4029C39.6924 14.4029 38.5241 15.1817 38.1349 16.1162V28.8877L40.1922 30.7582V30.9583H30.2249V30.7582L31.9825 28.889V14.4039ZM46.6669 30.9463V30.7904L48.4244 28.877V14.4039L46.3556 12.3794V12.1774L54.1873 10.2304H54.5764V28.8881L56.3344 30.8015V30.9574H46.6669V30.9463ZM48.145 4.04706C48.145 2.13366 49.436 0.965332 51.4937 0.965332C53.5514 0.965332 54.8419 2.13366 54.8419 4.04706C54.8419 5.91621 53.563 7.08409 51.4937 7.08409C49.4245 7.08409 48.145 5.91621 48.145 4.04706ZM59.1934 30.9463V30.7462L60.951 28.877V13.0359H58.1809V12.8801L60.984 10.4659C61.8408 4.81473 65.3118 0.965332 69.5502 0.965332C70.6068 0.965332 71.8554 1.19909 72.3534 1.47711L71.7306 6.58336H71.5302L65.9574 4.12498C64.7448 4.24717 63.6978 6.22742 63.6978 8.01865C63.6978 10.3212 65.4558 11.6006 68.4468 11.6006H73.6308C73.9428 5.60683 77.2908 0.965332 81.4626 0.965332C82.4418 0.965332 83.61 1.19909 84.1548 1.47711L83.4876 6.5391H83.2872L78.3384 4.20106C77.2038 4.31217 76.314 5.99182 76.314 7.82779C76.314 10.3175 77.9496 11.6084 81.1092 11.6084H93.024L92.7114 13.8372V28.96L94.4694 30.7955V30.9514H84.78V30.7955L86.571 28.8821V13.0359H79.7514V28.8881L82.0878 30.7582V30.9583H71.8062V30.7582L73.5972 28.8448V13.0359H67.092V28.8881L69.4278 30.7582V30.9583H59.1925L59.1934 30.9463ZM86.304 4.04706C86.304 2.13366 87.5832 0.965332 89.6526 0.965332C91.755 0.965332 93.0456 2.13366 93.0456 4.04706C93.0456 5.91621 91.7544 7.08409 89.6526 7.08409C87.5832 7.08409 86.304 5.91621 86.304 4.04706ZM105.26 28.8881L107.018 30.7582V30.9583H97.3506V30.7582L99.1086 28.889V14.4117L97.0392 12.3429V12.1424L104.404 10.229H104.793L105.07 13.8889H105.337C107.472 11.4305 109.775 10.229 112.345 10.229C115.816 10.229 118.229 12.4882 118.229 15.6801V28.8849L119.987 30.754V30.9541H110.287V30.754L112.078 28.7627V16.9046C112.078 14.9912 110.91 13.8234 109.04 13.8234C107.796 13.8234 106.551 14.3236 105.26 15.3361L105.26 28.8881Z" fill="white"/>
</svg>
