<svg width="140" height="21" viewBox="0 0 140 21" fill="none" xmlns="http://www.w3.org/2000/svg">
<path d="M135.739 1.19262H140V19.7408H135.521L128.857 7.81304V19.7408H124.569V1.19262H129.048L135.739 13.2571V1.19262ZM107.69 0.700195C113.835 0.700195 117.468 5.35091 117.468 10.4394C117.468 15.5277 113.808 20.1785 107.69 20.1785C101.518 20.1785 97.8852 15.5277 97.8852 10.4394C97.8852 5.37827 101.545 0.700195 107.69 0.700195ZM113.126 10.4667C113.126 7.43004 111.049 4.5849 107.717 4.5849C104.331 4.5849 102.31 7.43004 102.31 10.4667C102.31 13.5033 104.358 16.3485 107.717 16.3485C111.049 16.3211 113.126 13.5033 113.126 10.4667ZM38.5369 4.88584V1.19262H51.2095V4.88584H47.0035V19.7134H42.7155V4.88584H38.5369ZM83.9293 8.85261H90.9482V12.2176H83.9566V16.2937H90.9482V19.7408H79.6684V1.19262H90.9482V4.63962H83.9566V8.85261H83.9293ZM65.6301 1.19262C69.7269 1.19262 72.3758 4.28398 72.3758 7.89514C72.3758 10.494 71.0108 12.7921 68.689 13.8863L72.4031 19.7408H67.4327L64.1553 14.5976H62.1342V19.7408H57.8462V1.19262H65.6301ZM68.0336 7.89514C68.0336 6.17162 66.8592 4.69434 65.0839 4.69434H62.1615V11.0959H65.0839C66.8865 11.0959 68.0336 9.61862 68.0336 7.89514ZM30.1522 17.4701H23.5701L22.8599 19.7134H18.2988L24.9083 1.16526H28.8412L35.5326 19.7134H30.8896L30.1522 17.4701ZM26.8748 6.47256L24.6079 14.1052H29.1143L26.8748 6.47256ZM7.75656 1.19262C11.8533 1.19262 14.5025 4.28398 14.5025 7.89514C14.5025 11.5062 11.8533 14.5976 7.75656 14.5976H4.28794V19.7408H0V1.19262H7.75656ZM10.1873 7.89514C10.1873 6.17162 9.01285 4.69434 7.23758 4.69434H4.28794V11.0959H7.21028C9.01285 11.0959 10.1873 9.61862 10.1873 7.89514Z" fill="white"/>
</svg>
