<svg width="120" height="46" viewBox="0 0 120 46" fill="none" xmlns="http://www.w3.org/2000/svg">
<path fill-rule="evenodd" clip-rule="evenodd" d="M63.083 15.8519C62.0795 15.0079 60.3668 14.5864 57.944 14.5864H52.4795V31.4737H56.5656V26.181H58.3959C60.6175 26.181 62.2466 25.6921 63.2833 24.7133C64.4511 23.6167 65.0387 22.1566 65.0387 20.3338C65.0387 18.4437 64.3865 16.9494 63.083 15.8519ZM58.2944 22.3598H56.5656V18.4076H58.1187C60.008 18.4076 60.9526 19.0703 60.9526 20.3956C60.9526 21.7038 60.0659 22.3598 58.2944 22.3598ZM72.0308 14.5854H67.77V31.4728H76.9696V27.6506H72.0308V14.5854ZM85.3172 14.5854L78.6245 31.4728H83.2119L84.0891 29.0177H89.9045L90.7066 31.4728H95.3455L88.7 14.5854H85.3172ZM85.2671 25.599L87.0223 19.8269L88.7501 25.599H85.2671Z" fill="white"/>
<path fill-rule="evenodd" clip-rule="evenodd" d="M97.4738 31.4729H101.736V14.5856H97.4738V31.4729ZM118.282 17.7507C117.743 16.9702 117.052 16.3072 116.25 15.8017C114.963 14.991 113.208 14.5865 110.985 14.5865H105.371V31.4729H111.938C114.312 31.4729 116.217 30.6973 117.654 29.1441C119.091 27.5919 119.809 25.5318 119.809 22.9657C119.809 20.9245 119.3 19.1862 118.282 17.7507ZM111.462 27.6498H109.633V18.4087H111.488C112.791 18.4087 113.793 18.8169 114.496 19.6305C115.198 20.4441 115.549 21.5986 115.549 23.0929C115.549 26.1308 114.186 27.6498 111.462 27.6498ZM17.8828 0.407715L4.07237 4.0248L0.266352 17.9131L5.02648 22.8005L0.189453 27.6071L3.77142 41.5562L17.522 45.3982L22.36 40.5906L27.1201 45.477L40.9306 41.86L44.7357 27.9707L39.9765 23.0853L44.8135 18.2786L41.2315 4.3286L27.479 0.486512L22.6429 5.29315L17.8828 0.407715ZM9.40784 6.69632L16.6828 4.78999L19.8642 8.0558L15.2246 12.6659L9.40784 6.69632ZM25.3781 8.09948L28.6107 4.88777L35.8543 6.91183L29.9427 12.7856L25.3781 8.09948ZM4.6249 16.7729L6.62901 9.45806L12.4439 15.4277L7.80531 20.0378L4.6249 16.7729ZM32.6758 15.5929L38.5876 9.7172L40.473 17.0653L37.2414 20.278L32.6758 15.5929ZM17.9588 15.4723L22.5983 10.8621L27.1619 15.5482L22.5233 20.1583L17.9588 15.4723ZM10.5404 22.8441L15.179 18.234L19.7455 22.9201L15.105 27.5302L10.5404 22.8441ZM25.2585 22.9647L29.8971 18.3545L34.4616 23.0406L29.822 27.6507L25.2585 22.9647ZM4.52807 28.8195L7.76164 25.6058L12.3252 30.2929L6.41541 36.1656L4.52807 28.8195ZM17.8391 30.3365L22.4787 25.7264L27.0433 30.4125L22.4047 35.0226L17.8391 30.3365ZM32.5562 30.4581L37.1958 25.8479L40.3771 29.1128L38.3739 36.4277L32.5562 30.4581ZM9.14863 38.9739L15.0594 33.0982L19.6258 37.7843L16.3923 40.9979L9.14863 38.9739ZM25.1389 37.8289L29.7775 33.2188L35.5933 39.1893L28.3192 41.0948L25.1389 37.8289Z" fill="white"/>
</svg>
