<svg width="296" height="144" viewBox="0 0 296 144" fill="none" xmlns="http://www.w3.org/2000/svg">
<rect width="296" height="144" rx="24" fill="#282828"/>
<g clip-path="url(#clip0_801_15984)">
<path d="M155.995 76.3945L142.342 58.6052H138.938V82.4518H142.388V64.1771L156.43 82.4518H159.445V58.6052H155.995V76.3945ZM121.612 71.9705H133.85V68.8718H121.603V61.6945H135.414V58.5958H118.088V82.4518H135.589V79.3531H121.603L121.612 71.9705ZM107.219 68.9465C102.456 67.7891 101.124 66.8745 101.124 64.6531C101.124 62.6558 102.872 61.3025 105.48 61.3025C107.856 61.3727 110.147 62.2065 112.02 63.6825L113.87 61.0411C111.499 59.1656 108.557 58.1763 105.545 58.2412C100.865 58.2412 97.5995 61.0411 97.5995 65.0265C97.5995 69.3198 100.374 70.8038 105.425 72.0451C109.92 73.0905 111.299 74.0611 111.299 76.2358C111.299 78.4105 109.449 79.7545 106.59 79.7545C103.745 79.7413 101.007 78.6562 98.9129 76.7118L96.8317 79.2225C99.5136 81.5477 102.934 82.8229 106.47 82.8158C111.539 82.8158 114.795 80.0625 114.795 75.8065C114.767 72.2038 112.658 70.2718 107.219 68.9465ZM222.021 58.6052L214.908 69.8051L207.841 58.6052H203.716L213.049 73.0251V82.4611H216.601V72.9131L225.999 58.6052H222.021ZM162.239 61.8345H169.981V82.4611H173.533V61.8345H181.275V58.6052H162.248L162.239 61.8345ZM197.703 73.1465C201.274 72.1478 203.253 69.6278 203.253 66.0251C203.253 61.4425 199.932 58.5585 194.577 58.5585H184.069V82.4425H187.584V73.8745H193.55L199.544 82.4611H203.651L197.176 73.2958L197.703 73.1465ZM187.574 70.8131V61.7598H194.207C197.666 61.7598 199.646 63.4118 199.646 66.2771C199.646 69.1425 197.527 70.8131 194.244 70.8131H187.574ZM67.8237 52.1092C67.4394 51.4657 66.8968 50.9333 66.2485 50.5638C65.6002 50.1942 64.8682 50 64.1237 50C63.3791 50 62.6471 50.1942 61.9989 50.5638C61.3505 50.9333 60.8079 51.4657 60.4237 52.1092L54.3372 62.6278C58.987 64.9702 62.9487 68.4991 65.8289 72.8641C68.7092 77.2291 70.4077 82.2783 70.756 87.5105H66.4825C66.1348 83.0255 64.6326 78.7099 62.1245 74.9907C59.6163 71.2714 56.189 68.2776 52.182 66.3051L46.5487 76.1331C48.8014 77.1525 50.7638 78.7271 52.2558 80.7119C53.7477 82.6967 54.7211 85.0282 55.0864 87.4918H45.2722C45.1558 87.4835 45.0433 87.4461 44.9448 87.383C44.8463 87.3199 44.7649 87.233 44.708 87.1301C44.6511 87.0274 44.6205 86.9119 44.6188 86.7942C44.6172 86.6765 44.6446 86.5602 44.6987 86.4558L47.4182 81.7891C46.4968 81.0135 45.4438 80.4128 44.3102 80.0158L41.6184 84.6825C41.3382 85.1675 41.1563 85.7038 41.0832 86.2604C41.0102 86.8169 41.0475 87.3825 41.1929 87.9244C41.3384 88.4662 41.5891 88.9736 41.9305 89.4168C42.2719 89.8601 42.6972 90.2305 43.1817 90.5065C43.82 90.8695 44.5395 91.0622 45.2722 91.0665H58.7125C58.962 87.9586 58.412 84.8383 57.1155 82.0077C55.8191 79.1773 53.8201 76.7326 51.3124 74.9105L53.4492 71.1771C56.614 73.3705 59.1573 76.3585 60.8281 79.8464C62.4989 83.3344 63.2395 87.2016 62.9767 91.0665H74.3634C74.6286 85.2117 73.3662 79.3892 70.7026 74.1809C68.0389 68.9725 64.0671 64.5607 59.1842 61.3865L63.504 53.9198C63.6001 53.7571 63.7562 53.6393 63.9381 53.5921C64.12 53.5449 64.313 53.5722 64.4752 53.6678C64.9655 53.9385 83.2435 86.1198 83.5857 86.4931C83.6459 86.6023 83.6766 86.7255 83.6746 86.8503C83.6726 86.9752 83.6379 87.0974 83.574 87.2044C83.5102 87.3114 83.4195 87.3995 83.3111 87.4599C83.2027 87.5202 83.0805 87.5505 82.9567 87.5478H78.5537C78.6092 88.7363 78.6092 89.9217 78.5537 91.1038H82.9752C83.5366 91.1075 84.0932 90.9989 84.6127 90.7841C85.1323 90.5693 85.6044 90.2526 86.0019 89.8525C86.3994 89.4523 86.7141 88.9766 86.9282 88.4529C87.1422 87.9291 87.2511 87.3677 87.2487 86.8011C87.2493 86.0529 87.0512 85.3182 86.6752 84.6731L67.8237 52.1092Z" fill="white"/>
</g>
<defs>
<clipPath id="clip0_801_15984">
<rect width="185" height="42" fill="white" transform="translate(41 50)"/>
</clipPath>
</defs>
</svg>
